<svg width="900" height="1200" viewBox="0 0 900 1200" fill="none" xmlns="http://www.w3.org/2000/svg">
  <defs>
    <linearGradient id="woodBg" x1="450" y1="0" x2="450" y2="1200" gradientUnits="userSpaceOnUse">
      <stop stop-color="#6E553E" />
      <stop offset="0.32" stop-color="#7B6147" />
      <stop offset="0.7" stop-color="#896B4C" />
      <stop offset="1" stop-color="#5D4734" />
    </linearGradient>
    <linearGradient id="frameGold" x1="0" y1="0" x2="1" y2="1">
      <stop stop-color="#7C5823" />
      <stop offset="0.32" stop-color="#C79A52" />
      <stop offset="0.68" stop-color="#F2D38D" />
      <stop offset="1" stop-color="#8F672E" />
    </linearGradient>
    <linearGradient id="paper" x1="0" y1="0" x2="0" y2="1">
      <stop stop-color="#FBFBFA" />
      <stop offset="1" stop-color="#EEEAE3" />
    </linearGradient>
    <radialGradient id="spotlight" cx="0" cy="0" r="1" gradientUnits="userSpaceOnUse" gradientTransform="translate(450 112) rotate(90) scale(170 460)">
      <stop stop-color="#FFEAB8" stop-opacity="0.56" />
      <stop offset="1" stop-color="#FFEAB8" stop-opacity="0" />
    </radialGradient>
    <filter id="softBlur" x="-120" y="-120" width="1140" height="1440" filterUnits="userSpaceOnUse" color-interpolation-filters="sRGB">
      <feGaussianBlur stdDeviation="24" />
    </filter>
    <filter id="frameShadow" x="58" y="166" width="784" height="744" filterUnits="userSpaceOnUse" color-interpolation-filters="sRGB">
      <feOffset dy="18" />
      <feGaussianBlur stdDeviation="18" />
      <feColorMatrix type="matrix" values="0 0 0 0 0.13 0 0 0 0 0.08 0 0 0 0 0.04 0 0 0 0.36 0" />
      <feBlend mode="normal" in2="SourceGraphic" result="shape" />
    </filter>
  </defs>

  <rect width="900" height="1200" fill="url(#woodBg)" />

  <g opacity="0.28">
    <path d="M92 0V1200" stroke="#9A7A57" stroke-width="2" />
    <path d="M146 0V1200" stroke="#4D3B2C" stroke-width="2" />
    <path d="M208 0V1200" stroke="#9F7F5B" stroke-width="1.6" />
    <path d="M294 0V1200" stroke="#5C4734" stroke-width="2" />
    <path d="M362 0V1200" stroke="#9A7754" stroke-width="1.6" />
    <path d="M446 0V1200" stroke="#5B4533" stroke-width="2" />
    <path d="M532 0V1200" stroke="#A07D58" stroke-width="1.6" />
    <path d="M620 0V1200" stroke="#5B4532" stroke-width="2" />
    <path d="M706 0V1200" stroke="#9D7B57" stroke-width="1.6" />
    <path d="M792 0V1200" stroke="#5A4532" stroke-width="2" />
  </g>

  <g filter="url(#softBlur)" opacity="0.88">
    <ellipse cx="448" cy="118" rx="320" ry="124" fill="url(#spotlight)" />
    <ellipse cx="238" cy="122" rx="160" ry="110" fill="#FFF1C7" fill-opacity="0.22" />
    <ellipse cx="672" cy="122" rx="160" ry="110" fill="#FFF1C7" fill-opacity="0.22" />
  </g>

  <rect x="0" y="0" width="900" height="170" fill="url(#spotlight)" opacity="0.28" />
  <rect x="0" y="0" width="900" height="1200" fill="url(#woodBg)" fill-opacity="0.1" />

  <path d="M0 278H900" stroke="#281D14" stroke-width="5" opacity="0.7" />

  <g filter="url(#frameShadow)">
    <rect x="136" y="256" width="264" height="402" rx="6" fill="url(#frameGold)" />
    <rect x="148" y="268" width="240" height="378" rx="4" fill="#8A612B" />
    <rect x="164" y="284" width="208" height="346" rx="3" fill="url(#paper)" />

    <rect x="500" y="256" width="264" height="402" rx="6" fill="url(#frameGold)" />
    <rect x="512" y="268" width="240" height="378" rx="4" fill="#8A612B" />
    <rect x="528" y="284" width="208" height="346" rx="3" fill="url(#paper)" />
  </g>

  <g opacity="0.78">
    <path d="M268 330H326" stroke="#D0C2A5" stroke-width="3" stroke-linecap="round" />
    <path d="M632 330H690" stroke="#D0C2A5" stroke-width="3" stroke-linecap="round" />
    <path d="M278 316L286 330H270L278 316Z" fill="#9A6A25" />
    <path d="M642 316L650 330H634L642 316Z" fill="#9A6A25" />
    <path d="M250 350H286" stroke="#B9B2A3" stroke-width="2" stroke-linecap="round" />
    <path d="M614 350H650" stroke="#B9B2A3" stroke-width="2" stroke-linecap="round" />
    <path d="M220 386H316" stroke="#5F5A55" stroke-width="6" stroke-linecap="round" />
    <path d="M584 386H680" stroke="#5F5A55" stroke-width="6" stroke-linecap="round" />
    <path d="M214 418H330" stroke="#86807A" stroke-width="3" stroke-linecap="round" />
    <path d="M578 418H694" stroke="#86807A" stroke-width="3" stroke-linecap="round" />
  </g>

  <g opacity="0.88">
    <path d="M194 454H342" stroke="#86807A" stroke-width="3" stroke-linecap="round" />
    <path d="M194 482H328" stroke="#9A948D" stroke-width="3" stroke-linecap="round" />
    <path d="M194 510H346" stroke="#A5A099" stroke-width="3" stroke-linecap="round" />
    <path d="M194 538H314" stroke="#A5A099" stroke-width="3" stroke-linecap="round" />
    <path d="M194 566H332" stroke="#9A948D" stroke-width="3" stroke-linecap="round" />
    <path d="M194 594H286" stroke="#A5A099" stroke-width="3" stroke-linecap="round" />
    <rect x="194" y="612" width="28" height="28" rx="4" fill="#DBD7D2" />
    <rect x="224" y="612" width="28" height="28" rx="4" fill="#E7E2DC" />

    <path d="M558 454H706" stroke="#86807A" stroke-width="3" stroke-linecap="round" />
    <path d="M558 482H692" stroke="#9A948D" stroke-width="3" stroke-linecap="round" />
    <path d="M558 510H710" stroke="#A5A099" stroke-width="3" stroke-linecap="round" />
    <path d="M558 538H678" stroke="#A5A099" stroke-width="3" stroke-linecap="round" />
    <path d="M558 566H696" stroke="#9A948D" stroke-width="3" stroke-linecap="round" />
    <path d="M558 594H650" stroke="#A5A099" stroke-width="3" stroke-linecap="round" />
    <rect x="558" y="612" width="28" height="28" rx="4" fill="#DBD7D2" />
    <rect x="588" y="612" width="28" height="28" rx="4" fill="#E7E2DC" />
  </g>

  <g opacity="0.42">
    <rect x="402" y="936" width="86" height="116" rx="10" fill="#6A513D" />
    <rect x="416" y="964" width="58" height="58" rx="6" fill="#755A43" />
  </g>
</svg>
