<svg width="900" height="1200" viewBox="0 0 900 1200" fill="none" xmlns="http://www.w3.org/2000/svg">
  <defs>
    <linearGradient id="stone" x1="60" y1="0" x2="840" y2="1200" gradientUnits="userSpaceOnUse">
      <stop stop-color="#55585E" />
      <stop offset="0.34" stop-color="#4C4F56" />
      <stop offset="0.66" stop-color="#63666D" />
      <stop offset="1" stop-color="#474A50" />
    </linearGradient>
    <linearGradient id="plate" x1="0" y1="0" x2="1" y2="1">
      <stop stop-color="#FAF7F0" />
      <stop offset="1" stop-color="#EEE7DA" />
    </linearGradient>
    <linearGradient id="sauce" x1="0" y1="0" x2="1" y2="1">
      <stop stop-color="#A33B22" />
      <stop offset="1" stop-color="#DE6D33" />
    </linearGradient>
    <linearGradient id="fried" x1="0" y1="0" x2="1" y2="1">
      <stop stop-color="#F8E1B2" />
      <stop offset="1" stop-color="#E2B867" />
    </linearGradient>
    <radialGradient id="lightGlow" cx="0" cy="0" r="1" gradientUnits="userSpaceOnUse" gradientTransform="translate(450 162) rotate(90) scale(148 430)">
      <stop stop-color="#FFF2D0" stop-opacity="0.28" />
      <stop offset="1" stop-color="#FFF2D0" stop-opacity="0" />
    </radialGradient>
    <filter id="plateShadow" x="-80" y="-80" width="1060" height="1360" filterUnits="userSpaceOnUse" color-interpolation-filters="sRGB">
      <feOffset dy="18" />
      <feGaussianBlur stdDeviation="20" />
      <feColorMatrix type="matrix" values="0 0 0 0 0.08 0 0 0 0 0.08 0 0 0 0 0.08 0 0 0 0.26 0" />
      <feBlend mode="normal" in2="SourceGraphic" result="shape" />
    </filter>
  </defs>

  <rect width="900" height="1200" fill="url(#stone)" />
  <ellipse cx="450" cy="162" rx="360" ry="140" fill="url(#lightGlow)" />

  <g opacity="0.24">
    <path d="M-40 268C120 210 280 180 424 220C564 256 722 250 940 182" stroke="#BFC4CA" stroke-width="10" />
    <path d="M-40 506C148 454 332 450 510 506C678 560 806 550 940 506" stroke="#777B82" stroke-width="8" />
    <path d="M-40 804C166 734 320 728 506 790C666 842 796 846 940 786" stroke="#80858B" stroke-width="8" />
    <path d="M124 -40C178 184 200 450 154 1240" stroke="#686D75" stroke-width="8" />
    <path d="M472 -20C538 208 578 474 520 1240" stroke="#737880" stroke-width="8" />
    <path d="M786 -20C840 232 846 472 804 1240" stroke="#686D75" stroke-width="8" />
  </g>

  <g filter="url(#plateShadow)">
    <ellipse cx="168" cy="182" rx="188" ry="122" fill="url(#plate)" />
    <ellipse cx="694" cy="164" rx="168" ry="114" fill="url(#plate)" />
    <ellipse cx="542" cy="410" rx="120" ry="78" fill="url(#plate)" />
    <ellipse cx="284" cy="544" rx="222" ry="132" fill="url(#plate)" />
    <ellipse cx="738" cy="502" rx="164" ry="102" fill="url(#plate)" />
    <ellipse cx="202" cy="864" rx="172" ry="108" fill="url(#plate)" />
    <ellipse cx="640" cy="882" rx="206" ry="128" fill="url(#plate)" />
    <ellipse cx="452" cy="1072" rx="158" ry="98" fill="url(#plate)" />
  </g>

  <g>
    <ellipse cx="168" cy="182" rx="138" ry="82" fill="#A5622D" />
    <path d="M72 148C102 132 126 154 148 176C172 200 214 204 250 170C268 154 286 148 304 152" stroke="#F1D1A2" stroke-width="26" stroke-linecap="round" />
    <circle cx="192" cy="170" r="22" fill="#F6D27B" />
    <circle cx="222" cy="194" r="18" fill="#CF592B" />
    <circle cx="124" cy="194" r="16" fill="#BF4C25" />

    <ellipse cx="694" cy="164" rx="126" ry="84" fill="#D89B42" />
    <circle cx="636" cy="150" r="42" fill="#F7E9C8" />
    <circle cx="688" cy="182" r="38" fill="#F6E5B0" />
    <circle cx="746" cy="146" r="40" fill="#F4DFA6" />
    <path d="M616 226C648 202 692 204 724 228" stroke="#88A34C" stroke-width="18" stroke-linecap="round" />

    <ellipse cx="542" cy="410" rx="84" ry="50" fill="url(#sauce)" />
    <path d="M486 392H602" stroke="#F4D7A5" stroke-width="18" stroke-linecap="round" />
    <path d="M504 430C528 402 552 396 578 428" stroke="#C5662C" stroke-width="20" stroke-linecap="round" />

    <ellipse cx="284" cy="544" rx="176" ry="94" fill="#AA6C32" />
    <path d="M176 524C216 474 272 462 324 490C368 514 398 520 442 508" stroke="#D9944A" stroke-width="30" stroke-linecap="round" />
    <path d="M188 586C236 548 274 544 332 560C374 572 402 586 438 586" stroke="#8E4B1B" stroke-width="34" stroke-linecap="round" />
    <path d="M214 464C234 432 270 424 300 438" stroke="#8AA34B" stroke-width="18" stroke-linecap="round" />
    <circle cx="304" cy="534" r="16" fill="#C52C22" />
    <circle cx="340" cy="512" r="14" fill="#C52C22" />
    <circle cx="268" cy="506" r="14" fill="#D95B29" />

    <ellipse cx="738" cy="502" rx="116" ry="70" fill="url(#fried)" />
    <g fill="#F7E2B4">
      <circle cx="684" cy="478" r="26" />
      <circle cx="724" cy="462" r="22" />
      <circle cx="768" cy="474" r="24" />
      <circle cx="792" cy="508" r="26" />
      <circle cx="746" cy="522" r="28" />
      <circle cx="704" cy="526" r="22" />
    </g>

    <ellipse cx="202" cy="864" rx="126" ry="82" fill="#F7F0E4" />
    <path d="M106 892C138 824 178 794 232 792C262 792 286 800 310 818" stroke="#7FA04A" stroke-width="18" stroke-linecap="round" />
    <path d="M156 894C198 810 216 804 244 806C244 842 224 866 202 892C186 908 168 922 150 936C138 918 140 904 156 894Z" fill="#E59335" />
    <path d="M244 806C216 816 196 844 186 878" stroke="#F7C56D" stroke-width="6" stroke-linecap="round" />

    <ellipse cx="640" cy="882" rx="158" ry="94" fill="#C79A62" />
    <path d="M548 862C588 818 642 810 692 834C724 850 752 864 790 854" stroke="#E0BD91" stroke-width="24" stroke-linecap="round" />
    <path d="M556 920C604 890 636 886 682 898C718 908 750 928 786 934" stroke="#8C5B2A" stroke-width="32" stroke-linecap="round" />
    <circle cx="612" cy="872" r="12" fill="#C83123" />
    <circle cx="666" cy="856" r="10" fill="#C83123" />
    <circle cx="704" cy="878" r="10" fill="#C83123" />

    <ellipse cx="452" cy="1072" rx="116" ry="72" fill="#F7F0E4" />
    <path d="M380 1090C412 1028 452 1008 514 1014" stroke="#81A04A" stroke-width="18" stroke-linecap="round" />
    <path d="M400 1114C430 1040 450 1028 480 1030C480 1054 470 1076 452 1102C438 1120 424 1132 404 1144C392 1136 388 1128 400 1114Z" fill="#E08A30" />
  </g>

  <g opacity="0.84">
    <path d="M52 142H124" stroke="#87A54C" stroke-width="16" stroke-linecap="round" />
    <path d="M750 314H822" stroke="#84A14A" stroke-width="14" stroke-linecap="round" />
    <path d="M72 716H140" stroke="#88A44A" stroke-width="16" stroke-linecap="round" />
    <path d="M786 730H850" stroke="#87A44A" stroke-width="16" stroke-linecap="round" />
  </g>
</svg>
