<svg width="1600" height="1200" viewBox="0 0 1600 1200" fill="none" xmlns="http://www.w3.org/2000/svg">
  <rect width="1600" height="1200" fill="#0B0907"/>
  <circle cx="1160" cy="300" r="360" fill="url(#paint0_radial)" fill-opacity="0.55"/>
  <circle cx="420" cy="920" r="420" fill="url(#paint1_radial)" fill-opacity="0.45"/>
  <ellipse cx="850" cy="640" rx="460" ry="300" fill="#1D1712"/>
  <ellipse cx="850" cy="640" rx="410" ry="258" fill="#090806"/>
  <ellipse cx="850" cy="640" rx="355" ry="220" fill="#16110D"/>
  <ellipse cx="850" cy="642" rx="310" ry="188" fill="#241A13"/>
  <circle cx="742" cy="576" r="94" fill="#BA8E62"/>
  <circle cx="900" cy="724" r="84" fill="#D3AE86"/>
  <circle cx="992" cy="556" r="74" fill="#8B5E34"/>
  <circle cx="790" cy="756" r="58" fill="#E9D1B7"/>
  <circle cx="664" cy="710" r="54" fill="#A97148"/>
  <path d="M672 522C736 468 834 456 910 490C980 522 1032 590 1048 672C1030 616 986 568 928 542C846 504 742 514 672 522Z" fill="#F4E1CD" fill-opacity="0.35"/>
  <path d="M542 520C470 576 430 648 436 744C446 876 562 960 690 960" stroke="#5B4631" stroke-width="18" stroke-linecap="round"/>
  <path d="M1060 486C1130 530 1180 620 1188 718C1196 830 1132 926 1038 976" stroke="#6A5039" stroke-width="18" stroke-linecap="round"/>
  <g opacity="0.85">
    <path d="M634 560C652 530 686 512 722 512C758 512 786 542 782 576C778 606 756 628 726 634C692 642 660 620 644 594C638 584 634 572 634 560Z" fill="#6F8A58"/>
    <path d="M950 470C978 438 1032 438 1060 472C1084 500 1084 542 1060 570C1030 606 976 606 946 574C922 548 924 502 950 470Z" fill="#6B7F52"/>
    <path d="M930 756C958 724 1012 724 1040 756C1064 784 1064 826 1040 854C1010 890 956 890 926 858C902 832 904 788 930 756Z" fill="#748A5F"/>
  </g>
  <g opacity="0.7">
    <circle cx="758" cy="610" r="10" fill="#FFF2E5"/>
    <circle cx="860" cy="706" r="10" fill="#FFF2E5"/>
    <circle cx="944" cy="596" r="10" fill="#FFF2E5"/>
    <circle cx="830" cy="566" r="8" fill="#FFF2E5"/>
    <circle cx="722" cy="704" r="8" fill="#FFF2E5"/>
  </g>
  <defs>
    <radialGradient id="paint0_radial" cx="0" cy="0" r="1" gradientUnits="userSpaceOnUse" gradientTransform="translate(1160 300) rotate(90) scale(360)">
      <stop stop-color="#D8B18A"/>
      <stop offset="1" stop-color="#D8B18A" stop-opacity="0"/>
    </radialGradient>
    <radialGradient id="paint1_radial" cx="0" cy="0" r="1" gradientUnits="userSpaceOnUse" gradientTransform="translate(420 920) rotate(90) scale(420)">
      <stop stop-color="#7B5A3E"/>
      <stop offset="1" stop-color="#7B5A3E" stop-opacity="0"/>
    </radialGradient>
  </defs>
</svg>
