<svg width="900" height="1200" viewBox="0 0 900 1200" fill="none" xmlns="http://www.w3.org/2000/svg">
  <defs>
    <linearGradient id="bg" x1="450" y1="0" x2="450" y2="1200" gradientUnits="userSpaceOnUse">
      <stop stop-color="#111216" />
      <stop offset="0.34" stop-color="#1A1C20" />
      <stop offset="0.68" stop-color="#5B4839" />
      <stop offset="1" stop-color="#D5C2AB" />
    </linearGradient>
    <linearGradient id="ceilingFade" x1="450" y1="0" x2="450" y2="468" gradientUnits="userSpaceOnUse">
      <stop stop-color="#0A0B0E" />
      <stop offset="1" stop-color="#191B1F" stop-opacity="0.38" />
    </linearGradient>
    <linearGradient id="windowGlow" x1="744" y1="258" x2="744" y2="742" gradientUnits="userSpaceOnUse">
      <stop stop-color="#D1E1F1" />
      <stop offset="0.5" stop-color="#97A8B5" />
      <stop offset="1" stop-color="#44525B" />
    </linearGradient>
    <linearGradient id="floor" x1="450" y1="716" x2="450" y2="1200" gradientUnits="userSpaceOnUse">
      <stop stop-color="#B8A48F" />
      <stop offset="0.45" stop-color="#D7C0A6" />
      <stop offset="1" stop-color="#E9D9C5" />
    </linearGradient>
    <linearGradient id="wood" x1="0" y1="0" x2="1" y2="1">
      <stop stop-color="#D7B48A" />
      <stop offset="1" stop-color="#A87A4D" />
    </linearGradient>
    <linearGradient id="lightLine" x1="42" y1="76" x2="860" y2="174" gradientUnits="userSpaceOnUse">
      <stop stop-color="#FFF2CC" />
      <stop offset="0.5" stop-color="#FFF6DA" />
      <stop offset="1" stop-color="#FFE0AE" />
    </linearGradient>
    <radialGradient id="warmGlow" cx="0" cy="0" r="1" gradientUnits="userSpaceOnUse" gradientTransform="translate(322 198) rotate(90) scale(278 398)">
      <stop stop-color="#FFE5AF" stop-opacity="0.32" />
      <stop offset="1" stop-color="#FFE5AF" stop-opacity="0" />
    </radialGradient>
    <radialGradient id="windowBloom" cx="0" cy="0" r="1" gradientUnits="userSpaceOnUse" gradientTransform="translate(760 486) rotate(90) scale(306 190)">
      <stop stop-color="#F7FBFF" stop-opacity="0.28" />
      <stop offset="1" stop-color="#F7FBFF" stop-opacity="0" />
    </radialGradient>
    <filter id="blur48" x="-120" y="-120" width="1140" height="1440" filterUnits="userSpaceOnUse" color-interpolation-filters="sRGB">
      <feGaussianBlur stdDeviation="24" />
    </filter>
    <filter id="blur28" x="-80" y="-80" width="1060" height="1360" filterUnits="userSpaceOnUse" color-interpolation-filters="sRGB">
      <feGaussianBlur stdDeviation="14" />
    </filter>
    <filter id="shadow" x="-40" y="-40" width="980" height="1280" filterUnits="userSpaceOnUse" color-interpolation-filters="sRGB">
      <feOffset dy="16" />
      <feGaussianBlur stdDeviation="18" />
      <feColorMatrix type="matrix" values="0 0 0 0 0.05 0 0 0 0 0.04 0 0 0 0 0.04 0 0 0 0.35 0" />
      <feBlend mode="normal" in2="SourceGraphic" result="shape" />
    </filter>
  </defs>

  <rect width="900" height="1200" fill="url(#bg)" />
  <rect width="900" height="468" fill="url(#ceilingFade)" />
  <rect y="716" width="900" height="484" fill="url(#floor)" />

  <g filter="url(#blur48)" opacity="0.65">
    <ellipse cx="322" cy="198" rx="244" ry="146" fill="url(#warmGlow)" />
    <ellipse cx="744" cy="468" rx="176" ry="244" fill="url(#windowBloom)" />
  </g>

  <g opacity="0.55">
    <rect x="0" y="246" width="212" height="332" fill="#292623" />
    <rect x="40" y="284" width="138" height="240" fill="#1C1B1E" />
    <rect x="298" y="176" width="82" height="484" fill="#121317" />
    <rect x="532" y="148" width="82" height="552" fill="#121317" />
    <rect x="660" y="258" width="188" height="484" fill="url(#windowGlow)" />
    <rect x="844" y="258" width="56" height="484" fill="#CDD7DF" />
    <rect x="630" y="328" width="24" height="374" fill="#101114" />
    <rect x="744" y="258" width="20" height="484" fill="#56656F" />
  </g>

  <g filter="url(#blur28)" opacity="0.34">
    <rect x="338" y="360" width="110" height="158" rx="24" fill="#FFF3CB" />
    <rect x="594" y="370" width="110" height="172" rx="24" fill="#FFD88C" />
    <rect x="228" y="396" width="104" height="142" rx="24" fill="#FFE7A9" />
  </g>

  <g filter="url(#shadow)">
    <path d="M-28 124C40 32 96 44 142 96C184 144 248 170 320 118C392 66 456 52 506 110C562 176 618 180 686 126C748 76 824 66 922 134" stroke="#FFF4D8" stroke-width="12" stroke-linecap="round" opacity="0.98" />
    <path d="M-34 146C32 68 98 72 152 122C208 176 260 192 328 150C390 112 452 90 508 138C570 194 632 204 698 156C770 104 842 104 940 168" stroke="url(#lightLine)" stroke-width="10" stroke-linecap="round" />
  </g>

  <g opacity="0.92">
    <path d="M98 56L124 92L98 130L72 92L98 56Z" fill="#4E702E" />
    <path d="M204 82L224 116L204 146L180 116L204 82Z" fill="#6F8A37" />
    <path d="M726 88L752 122L726 154L698 122L726 88Z" fill="#52712F" />
    <path d="M818 124L840 154L818 182L792 154L818 124Z" fill="#5F7C37" />
    <circle cx="156" cy="162" r="18" fill="#C79B43" />
    <circle cx="258" cy="194" r="16" fill="#B88934" />
    <circle cx="620" cy="166" r="14" fill="#C39A45" />
    <circle cx="792" cy="208" r="15" fill="#BD8F39" />
    <path d="M162 112V164" stroke="#9AA37A" stroke-width="2.4" />
    <path d="M254 146V196" stroke="#9AA37A" stroke-width="2.4" />
    <path d="M622 124V166" stroke="#9AA37A" stroke-width="2.4" />
    <path d="M792 160V208" stroke="#9AA37A" stroke-width="2.4" />
    <path d="M470 72L494 104L470 136L442 104L470 72Z" fill="#B9B299" />
    <path d="M470 136V222" stroke="#908768" stroke-width="3" />
  </g>

  <g opacity="0.88">
    <path d="M154 272C154 258 166 246 180 246C194 246 206 258 206 272V310H154V272Z" fill="#2D2D31" />
    <path d="M154 310H206L194 358H166L154 310Z" fill="#1B1C20" />
    <ellipse cx="180" cy="364" rx="30" ry="10" fill="#FFE8AE" opacity="0.38" />

    <path d="M394 252C394 236 408 224 424 224C440 224 454 236 454 252V302H394V252Z" fill="#2E2F34" />
    <path d="M394 302H454L444 350H404L394 302Z" fill="#191A1E" />
    <ellipse cx="424" cy="360" rx="32" ry="10" fill="#FFE8AE" opacity="0.34" />

    <path d="M598 266C598 248 614 232 632 232C650 232 666 248 666 266V326H598V266Z" fill="#2A2B2F" />
    <path d="M598 326H666L654 382H610L598 326Z" fill="#17181C" />
    <ellipse cx="632" cy="392" rx="36" ry="11" fill="#FFE8AE" opacity="0.38" />
  </g>

  <g opacity="0.95">
    <rect x="16" y="680" width="868" height="18" fill="#E6D2BB" opacity="0.72" />
    <rect x="0" y="698" width="900" height="34" fill="#D4C0A7" />
  </g>

  <g filter="url(#shadow)">
    <g>
      <path d="M74 774H262L284 840H48L74 774Z" fill="url(#wood)" />
      <path d="M104 840H114L96 940H86L104 840Z" fill="#222328" />
      <path d="M222 840H232L248 940H238L222 840Z" fill="#222328" />
      <path d="M146 854H186L186 924H146L146 854Z" fill="#B78D63" opacity="0.24" />
      <path d="M104 888C124 860 154 850 186 850C220 850 246 860 262 888V916H104V888Z" fill="#D6B18B" />
      <path d="M122 916H142L132 980H118L122 916Z" fill="#7A5B40" />
      <path d="M222 916H242L248 980H232L222 916Z" fill="#7A5B40" />
    </g>

    <g>
      <path d="M328 736H526L548 802H302L328 736Z" fill="url(#wood)" />
      <path d="M356 802H368L346 914H334L356 802Z" fill="#222328" />
      <path d="M482 802H494L516 914H504L482 802Z" fill="#222328" />
      <path d="M384 840C404 812 438 798 470 798C506 798 536 810 556 840V870H384V840Z" fill="#D6B18B" />
      <path d="M404 870H422L416 958H402L404 870Z" fill="#7A5B40" />
      <path d="M522 870H540L550 958H534L522 870Z" fill="#7A5B40" />
    </g>

    <g>
      <path d="M592 812H804L832 886H558L592 812Z" fill="url(#wood)" />
      <path d="M624 886H636L606 1020H594L624 886Z" fill="#222328" />
      <path d="M744 886H756L786 1020H774L744 886Z" fill="#222328" />
      <path d="M652 918C676 884 710 868 748 868C786 868 820 884 842 918V956H652V918Z" fill="#D6B18B" />
      <path d="M676 956H692L682 1062H668L676 956Z" fill="#7A5B40" />
      <path d="M806 956H822L840 1062H824L806 956Z" fill="#7A5B40" />
    </g>
  </g>

  <g opacity="0.55">
    <rect x="376" y="542" width="92" height="16" rx="8" fill="#AFBC8A" />
    <rect x="366" y="526" width="112" height="18" rx="9" fill="#5A694C" />
    <rect x="694" y="602" width="62" height="16" rx="8" fill="#B44932" />
    <rect x="132" y="644" width="30" height="46" rx="8" fill="#C14F39" />
    <rect x="168" y="644" width="30" height="46" rx="8" fill="#2B8F8A" />
  </g>

  <g opacity="0.46">
    <ellipse cx="156" cy="1034" rx="168" ry="56" fill="#BFA78A" />
    <ellipse cx="452" cy="1078" rx="224" ry="64" fill="#CBB69B" />
    <ellipse cx="746" cy="1126" rx="196" ry="58" fill="#D7C3AA" />
  </g>
</svg>
