<svg width="1200" height="900" viewBox="0 0 1200 900" fill="none" xmlns="http://www.w3.org/2000/svg">
  <rect width="1200" height="900" fill="#110E0C"/>
  <rect x="84" y="84" width="1032" height="732" rx="48" fill="url(#paint0_linear)" fill-opacity="0.95"/>
  <circle cx="964" cy="244" r="180" fill="url(#paint1_radial)" fill-opacity="0.5"/>
  <circle cx="290" cy="730" r="240" fill="url(#paint2_radial)" fill-opacity="0.35"/>
  <ellipse cx="602" cy="466" rx="290" ry="200" fill="#0B0907"/>
  <ellipse cx="602" cy="466" rx="242" ry="164" fill="#17110E"/>
  <ellipse cx="602" cy="466" rx="194" ry="126" fill="#241913"/>
  <circle cx="552" cy="434" r="48" fill="#CDA078"/>
  <circle cx="690" cy="538" r="44" fill="#E8CFB6"/>
  <circle cx="724" cy="390" r="40" fill="#8D633F"/>
  <circle cx="488" cy="538" r="34" fill="#9C764E"/>
  <path d="M408 310C458 270 532 248 606 252C692 258 780 300 834 362" stroke="#6A523C" stroke-width="14" stroke-linecap="round"/>
  <path d="M364 556C414 636 504 688 608 694C716 702 812 650 870 570" stroke="#6A523C" stroke-width="14" stroke-linecap="round"/>
  <path d="M904 144L1014 252" stroke="#E0B287" stroke-width="18" stroke-linecap="round"/>
  <path d="M1014 144L904 252" stroke="#E0B287" stroke-width="18" stroke-linecap="round"/>
  <defs>
    <linearGradient id="paint0_linear" x1="84" y1="84" x2="1116" y2="816" gradientUnits="userSpaceOnUse">
      <stop stop-color="#18120E"/>
      <stop offset="1" stop-color="#0D0A09"/>
    </linearGradient>
    <radialGradient id="paint1_radial" cx="0" cy="0" r="1" gradientUnits="userSpaceOnUse" gradientTransform="translate(964 244) rotate(90) scale(180)">
      <stop stop-color="#D3AA7E"/>
      <stop offset="1" stop-color="#D3AA7E" stop-opacity="0"/>
    </radialGradient>
    <radialGradient id="paint2_radial" cx="0" cy="0" r="1" gradientUnits="userSpaceOnUse" gradientTransform="translate(290 730) rotate(90) scale(240)">
      <stop stop-color="#7B593D"/>
      <stop offset="1" stop-color="#7B593D" stop-opacity="0"/>
    </radialGradient>
  </defs>
</svg>
